<?xml version="1.0" encoding="UTF-8"?> <svg xmlns="http://www.w3.org/2000/svg" xmlns:xlink="http://www.w3.org/1999/xlink" width="257px" height="80px" viewBox="0 0 257 80"><!-- Generator: Sketch 53.2 (72643) - https://sketchapp.com --><title>Group 18</title><desc>Created with Sketch.</desc><defs><polygon id="path-1" points="0.227142857 0.291960606 25 0.291960606 25 57.6578394 0.227142857 57.6578394"></polygon></defs><g id="Page-1" stroke="none" stroke-width="1" fill="none" fill-rule="evenodd"><g id="Homepage-Copy" transform="translate(-186.000000, -3327.000000)"><g id="Group" transform="translate(-2.000000, 2890.000000)"><g id="Group-18" transform="translate(188.000000, 437.000000)"><path d="M15.003722,47.5615451 C15.003722,46.2698374 14.5774402,44.9924224 13.7266236,43.7275136 C12.872313,42.4626047 12.0616787,41.351343 11.2947209,40.395515 L2.88439043,29.604485 C2.06152678,28.4807171 1.40288644,27.4266264 0.908469427,26.4457861 C0.410558299,25.4631592 0.164223319,24.239342 0.164223319,22.7779078 L0.164223319,17.0465131 C0.164223319,14.6274643 0.466464109,12.6890094 1.07094569,11.2275752 C1.67542727,9.76792755 2.41792632,8.64415968 3.29844284,7.85448497 C4.17546525,7.07017003 5.09616407,6.56456382 6.06053931,6.33945293 C7.02142043,6.11612863 7.88621344,6 8.65491834,6 L14.7538929,6 C15.4142803,6 16.2109381,6.14114096 17.1473604,6.42520946 C18.0802886,6.70570478 18.9712875,7.2095244 19.8273452,7.9402415 C20.6781618,8.6709586 21.3909609,9.70896994 21.9692366,11.0578487 C22.5440182,12.408514 22.8340296,14.1236447 22.8340296,16.2014539 C22.8340296,17.5503327 22.7624003,18.7741498 22.629624,19.8693322 C22.4898595,20.9645145 22.3675655,22.0739897 22.2575009,23.1977575 L15.251804,23.6211804 C14.5914166,23.6783514 14.3433346,23.4228684 14.509305,22.8636644 C14.6752754,22.1883317 14.7678694,21.3879374 14.7975693,20.4589083 C14.8220281,19.5334524 14.8377516,18.5633317 14.8377516,17.5503327 C14.8377516,15.9781296 14.6176225,14.9365451 14.1791113,14.4309389 C13.737106,13.9271193 13.1081656,13.6716363 12.2835549,13.6716363 L10.2220281,13.6716363 C9.39741739,13.6716363 8.83311812,13.9128265 8.53262438,14.3916338 C8.23038359,14.8668679 8.07838967,15.8369887 8.07838967,17.3002095 L8.07838967,21.4290291 C8.07838967,22.3848571 8.41033042,23.283514 9.06897076,24.1267866 C9.72586403,24.9682725 10.5242689,26.0098571 11.4589442,27.2461804 L19.4552222,37.5316042 C20.2239271,38.5982011 21.0083555,39.7809266 21.8050133,41.0708477 C22.6016711,42.3661286 23,44.0794726 23,46.2126663 L23,52.6193938 C23,54.7561607 22.7239651,56.5552612 22.1736422,58.0166954 C21.6250665,59.4781296 20.9524497,60.6429892 20.1557919,61.5148472 C19.3591341,62.3867053 18.5205469,63.0173731 17.6417774,63.4104239 C16.7612609,63.8052612 15.992556,64 15.3304216,64 L8.48894797,64 C7.72024307,64 6.85545006,63.8445663 5.89456893,63.5354855 C4.93194075,63.2299778 4.01124193,62.6672006 3.13247246,61.850727 C2.253703,61.0360399 1.50770984,59.9122721 0.908469427,58.4794234 C0.30224079,57.0465747 0,55.234968 0,53.0410301 C0,51.525998 0.0541587543,49.9805939 0.164223319,48.4066042 C0.274287885,46.8326146 0.438511204,45.2300394 0.660387391,43.5988788 L7.83205469,43.0932725 C8.21466008,42.9825037 8.43653627,43.0396747 8.48894797,43.262999 C8.54485378,43.4898965 8.57280668,43.7400197 8.57280668,44.0223016 C8.35267755,45.3693938 8.19020129,46.7629374 8.07838967,48.1939995 C7.9683251,49.6268482 7.91241929,50.9060498 7.91241929,52.0316042 C8.02423092,53.8307048 8.28454235,54.9955643 8.69859476,55.529756 C9.10915306,56.0639478 9.72586403,56.3283637 10.5522218,56.3283637 L13.2723889,56.3283637 C13.8751234,56.3283637 14.3136346,56.0639478 14.5914166,55.529756 C14.8657045,54.9955643 15.003722,53.8307048 15.003722,52.0316042 L15.003722,47.5615451 Z" id="Fill-1" fill="#FFFFFF"></path><path d="M44.8328252,52.0298176 C44.8328252,51.1311607 44.7917751,50.0502711 44.7061055,48.7853622 C44.6222206,47.52224 44.5222726,46.2430384 44.411616,44.9477575 C44.3509333,44.7798176 44.411616,44.6136644 44.5793857,44.4439379 C44.6347141,44.3885535 44.7203837,44.3581814 44.8328252,44.3581814 L52.3271362,44.104485 C52.6055626,45.7374322 52.7608388,47.407898 52.7911802,49.121242 C52.8197367,50.8363726 52.8322302,52.5104115 52.8322302,54.1397856 C52.8322302,57.5093026 52.1718599,59.9837358 50.852904,61.5559389 C49.5339481,63.1317151 47.6956198,63.9446156 45.3379192,64 L36.9155202,64 C34.7273741,64 32.8587045,63.2299778 31.3148658,61.6827871 C29.771027,60.1373829 29,57.762999 29,54.5596353 L29,16.2854239 C29,12.9123337 29.6728638,10.3592903 31.0203763,8.61378758 C32.3696735,6.87543125 34.529263,6 37.5062839,6 L45.3379192,6 C46.3481074,6 47.3029672,6.16972647 48.2007139,6.5091794 C49.0984606,6.84505914 49.9123225,7.38103746 50.6440842,8.10818137 C51.3722763,8.83889847 51.9487618,9.76792755 52.369971,10.8916954 C52.7911802,12.0172499 53,13.3357565 53,14.8525752 C53,16.3693938 52.9857217,17.830828 52.95895,19.2386644 C52.9303934,20.6429276 52.7751171,22.1597462 52.4966907,23.7873337 L45.3379192,24.0428167 C44.9434818,24.0428167 44.6918272,23.9874322 44.5793857,23.8730902 C44.4669443,23.7623213 44.4669443,23.481826 44.5793857,23.0316042 C44.6918272,22.1883317 44.7757121,21.3039675 44.8328252,20.3749384 C44.8863687,19.4476959 44.91671,18.5633317 44.91671,17.7200591 C44.91671,16.0906851 44.7328772,15.0080089 44.3687811,14.4738172 C44.0029003,13.941412 43.5120845,13.6716363 42.8963338,13.6716363 L39.3588905,13.6716363 C38.6271287,13.6716363 38.0667063,13.941412 37.6740537,14.4738172 C37.2814011,15.0080089 37.08329,16.0353006 37.08329,17.5503327 L37.08329,51.8600912 C37.08329,53.4912518 37.2938945,54.6436052 37.7168885,55.3189379 C38.1380977,55.9942706 38.6271287,56.3283637 39.1893359,56.3283637 L42.4751246,56.3283637 C44.0457351,56.3283637 44.8328252,54.895515 44.8328252,52.0298176" id="Fill-3" fill="#FFFFFF"></path><path d="M59,7.66973135 C59,7.22383594 59.1942605,7 59.5845475,7 L66.4172185,7 C66.8039735,7 67,7.19541233 67,7.58623699 L67,63.2449978 C67,63.7477404 66.7774834,64 66.3324503,64 L59.4997792,64 C59.2225166,64 59.0688742,63.9591411 59.0423841,63.8756467 C59.014128,63.7921523 59,63.637599 59,63.413763 L59,7.66973135 Z" id="Fill-5" fill="#FFFFFF"></path><path d="M181,63.4972574 C181,63.8330113 180.886462,64 180.661188,64 L173.26139,64 C172.978446,64 172.837875,63.8614349 172.837875,63.5825282 L172.837875,38.7687153 L164.162125,38.7687153 L164.162125,63.2449978 C164.162125,63.7495169 163.935049,64 163.482699,64 L156.51002,64 C156.225274,64 156.070285,63.9591411 156.04145,63.8756467 C156.012615,63.7903759 156,63.637599 156,63.413763 L156,7.66973135 C156,7.22383594 156.196439,7 156.594723,7 L163.567402,7 C163.963884,7 164.162125,7.19718881 164.162125,7.58623699 L164.162125,30.7230568 L172.837875,30.7230568 L172.837875,7.83849654 C172.837875,7.39260113 172.863106,7.13856511 172.922578,7.08349436 C172.978446,7.03020009 173.230753,7 173.686707,7 L180.48998,7 C180.772924,7 180.927912,7.03020009 180.95855,7.08349436 C180.985582,7.13856511 181,7.3073303 181,7.58623699 L181,63.4972574 Z" id="Fill-7" fill="#FFFFFF"></path><path d="M187,7.66973135 C187,7.22383594 187.194303,7 187.58291,7 L194.41709,7 C194.805697,7 195,7.19541233 195,7.58623699 L195,63.2449978 C195,63.7477404 194.777434,64 194.334069,64 L187.49989,64 C187.220799,64 187.068889,63.9591411 187.038861,63.8756467 C187.012365,63.7921523 187,63.637599 187,63.413763 L187,7.66973135 Z" id="Fill-9" fill="#FFFFFF"></path><path d="M225.916115,54.6418186 C225.916115,57.9577378 225.116532,60.3464145 223.51558,61.8078487 C221.916413,63.2710695 219.879973,64 217.409831,64 L210.757939,64 C208.343125,64 206.279914,63.2710695 204.568305,61.8078487 C202.853127,60.3464145 202,58.0702932 202,54.979485 L202,16.2854239 C202,12.9123337 202.785305,10.3557171 204.357701,8.61378758 C205.928311,6.87185806 208.400238,6 211.768127,6 L216.990407,6 C220.020971,6 222.280509,6.9844135 223.769019,8.95145392 C225.25753,10.9184943 226,14.0378881 226,18.3078487 C226,19.8264539 225.944672,21.0484845 225.83223,21.975727 C225.719789,22.9029694 225.635904,23.6193938 225.58236,24.125 L217.99881,24.3786964 C217.718599,24.3786964 217.607942,23.9856456 217.663271,23.1977575 C217.663271,22.8047068 217.677549,22.4527477 217.704321,22.1436668 C217.732877,21.8363726 217.761434,21.4844135 217.78999,21.0895761 C217.818547,20.6965254 217.832825,20.2337974 217.832825,19.6978191 L217.832825,17.7182725 C217.832825,15.020515 216.849409,13.6716363 214.882576,13.6716363 L213.283409,13.6716363 C212.328549,13.6716363 211.557522,13.9664243 210.968543,14.5560005 C210.379564,15.1473632 210.085075,16.1996673 210.085075,17.7182725 L210.085075,52.2817275 C210.085075,53.6306062 210.336729,54.6418186 210.841823,55.3153647 C211.346918,55.9906974 211.966238,56.3283637 212.69443,56.3283637 L215.726779,56.3283637 C216.904737,56.3283637 217.677549,56.0192829 218.04343,55.4011212 C218.407526,54.7829596 218.591359,53.6591917 218.591359,52.0298176 L218.591359,41.2387876 L215.30557,41.2387876 C215.023574,41.2387876 214.757641,41.2102021 214.504202,41.153031 C214.252547,41.0976466 214.127612,40.8457368 214.127612,40.395515 L214.127612,34.0727575 C214.127612,33.7922622 214.18294,33.524273 214.293597,33.2723632 C214.407823,33.0186668 214.688035,32.8918186 215.136015,32.8918186 L225.327136,32.8918186 C225.552019,32.8918186 225.705511,32.9221907 225.79118,32.9775752 C225.875065,33.0329596 225.916115,33.2580705 225.916115,33.6511212 L225.916115,54.6418186 Z" id="Fill-11" fill="#FFFFFF"></path><g id="Group-15" transform="translate(232.000000, 6.000000)"><mask id="mask-2" fill="white"><use xlink:href="#path-1"></use></mask><g id="Clip-14"></g><path d="M25.0003571,57.1518697 C25.0003571,57.4897788 24.8878571,57.6578394 24.6628571,57.6578394 L17.3325,57.6578394 C17.0503571,57.6578394 16.9110714,57.5183848 16.9110714,57.2376879 L16.9110714,32.264597 L8.31642857,32.264597 L8.31642857,56.8979909 C8.31642857,57.4057485 8.09142857,57.6578394 7.64142857,57.6578394 L0.7325,57.6578394 C0.452142857,57.6578394 0.298571429,57.6167182 0.268214286,57.5326879 C0.241428571,57.4468697 0.227142857,57.2931121 0.227142857,57.0678394 L0.227142857,0.965990909 C0.227142857,0.517233333 0.423571429,0.291960606 0.818214286,0.291960606 L7.72714286,0.291960606 C8.12,0.291960606 8.31642857,0.490415152 8.31642857,0.881960606 L8.31642857,24.1672939 L16.9110714,24.1672939 L16.9110714,1.13583939 C16.9110714,0.687081818 16.9378571,0.431415152 16.9967857,0.375990909 C17.0503571,0.322354545 17.3003571,0.291960606 17.7521429,0.291960606 L24.495,0.291960606 C24.7753571,0.291960606 24.9289286,0.322354545 24.9592857,0.375990909 C24.9860714,0.431415152 25.0003571,0.601263636 25.0003571,0.881960606 L25.0003571,57.1518697 Z" id="Fill-13" fill="#FFFFFF" mask="url(#mask-2)"></path></g><path d="M131.44117,43.6390157 C127.582451,38.4349647 120.989502,37.4999875 117.947291,37.35697 C118.403891,36.4237805 118.747684,35.4369594 118.975089,34.4072331 C120.772841,33.7439892 127.806274,31.5057646 133.235341,34.891705 C137.514848,37.5589823 139.873054,43.1044876 140.247287,51.3709018 C140.249078,51.388779 140.252659,51.4048684 140.25445,51.4227456 C138.485348,55.7186352 135.937339,59.6569808 132.708907,63.0751002 C135.199617,54.6674562 134.777038,48.1387052 131.44117,43.6390157 M113.200439,40.4479367 C113.017799,40.5981051 112.826206,40.7429104 112.638194,40.8823525 C113.272063,38.331277 113.153884,36.2181928 112.269333,34.5913682 C111.110822,32.4621945 109.073131,32.0116892 108.987183,31.993812 C108.971068,31.9902366 108.956743,31.9920243 108.942418,31.9884489 C108.910188,31.9830857 108.877957,31.981298 108.845727,31.981298 C108.817077,31.9795103 108.788428,31.9795103 108.757988,31.981298 C108.725757,31.981298 108.700689,31.981298 108.670249,31.9866611 C108.641599,31.9902366 108.611159,31.9955997 108.580719,32.0027506 C108.555651,32.0099015 108.527002,32.0188401 108.498352,32.0277787 C108.469703,32.038505 108.442844,32.0492313 108.415985,32.0617454 C108.389126,32.0742594 108.362268,32.0867734 108.33899,32.1028629 C108.310341,32.1189524 108.283482,32.1350418 108.260204,32.1547068 C108.245879,32.1636454 108.231555,32.1690085 108.21902,32.1797348 C107.318354,32.9126998 106.184911,33.2523664 105.0264,33.134377 C103.86968,33.0163875 102.827557,32.4550436 102.089834,31.5540331 C99.9644048,28.9439629 100.358334,25.0932154 102.972594,22.9676172 C104.723791,21.5428048 106.926215,20.8849241 109.169823,21.1155399 C111.418803,21.344368 113.442169,22.4348768 114.869268,24.1832663 C116.822801,26.5770225 117.725258,29.5875418 117.410114,32.6588436 C117.094971,35.7319331 115.599829,38.4993226 113.200439,40.4479367 M108.956743,33.9066717 C109.393647,34.0943822 110.151066,34.5323735 110.659593,35.4637752 C111.49938,37.0101524 111.357923,39.382456 110.271036,42.3339806 C109.236075,42.8452683 108.15814,43.2385666 107.060509,43.5102999 C108.12591,42.3214666 108.811705,41.0074929 109.087456,39.5791051 C109.515407,37.3480314 108.847517,35.4083559 108.310341,34.2946068 C108.534164,34.1801928 108.749035,34.0496892 108.956743,33.9066717 M99.3556045,43.4816964 C104.838388,41.102242 105.638782,36.9636717 105.687127,34.9757279 C105.980784,34.9667893 106.274441,34.9381857 106.559144,34.8863419 C106.981723,35.6908156 107.651404,37.3462437 107.287914,39.2340753 C106.944121,41.0110683 105.744426,42.5985631 103.733595,43.9625929 C102.25994,44.0054982 100.786285,43.8446034 99.3556045,43.4816964 M97.5990366,5.83590286 C96.0537582,11.0185012 96.2363983,15.0730486 98.1487475,17.8976451 C99.3591857,19.6835768 101.022643,20.618554 102.41214,21.1101768 C102.209804,21.254982 102.009258,21.3926364 101.814083,21.5517434 C101.797968,21.5624698 101.785434,21.5785592 101.769319,21.5910733 C100.86149,21.6447049 97.6348484,21.6572189 95.3679626,19.3778767 C93.2998322,17.293396 92.5549472,13.8359468 93.1494228,9.10742923 C93.4627758,8.81960642 93.7815007,8.53893448 94.1145503,8.26898886 C95.2247155,7.36440289 96.390389,6.55277831 97.5990366,5.83590286 M99.6564235,16.8554048 C97.8747873,14.2077925 97.9750603,10.0817363 99.9357554,4.58986249 C101.996723,3.6101923 104.161546,2.88616598 106.389038,2.42493439 C104.421181,4.49511337 101.885707,7.92217132 101.796177,11.9141486 C101.733507,14.7208679 102.892018,17.338089 105.232318,19.713968 C105.133835,19.7443592 105.035353,19.783689 104.93508,19.8176557 C104.26719,19.758661 101.334205,19.351061 99.6564235,16.8554048 M99.6653764,24.2905295 C98.7199454,24.5980172 95.7959134,25.3434961 93.1834439,23.8489628 C90.7768922,22.4706312 89.2280327,19.5423469 88.5726771,15.1481328 C89.2710068,13.7644381 90.1269084,12.4451012 91.1385912,11.2205135 C90.9846006,15.3715977 91.9640528,18.5447995 94.0697855,20.6650347 C95.9749723,22.5850452 98.3671993,23.1982329 100.07184,23.3734294 C100.107652,23.3770049 100.138092,23.3787926 100.168532,23.3805803 C99.9805201,23.6737663 99.8139953,23.9776786 99.6653764,24.2905295 M92.0231422,30.6083295 C92.35082,30.6780506 92.6731261,30.7281067 92.9900603,30.7602857 C95.5398592,31.0212927 97.7709332,30.159612 99.0941785,29.4767032 C99.1926609,29.9129067 99.3233739,30.3437471 99.4988516,30.7531348 C99.0476232,31.4467699 97.8461379,32.9770576 95.7153369,33.5580664 C93.3535499,34.1998577 90.5441156,33.5008594 87.3640294,31.4825243 C86.8751986,30.0201699 86.5564738,28.5202734 86.3971113,27.0096505 C88.0229662,28.9457506 89.9066659,30.1560366 92.0231422,30.6083295 M87.3282176,18.1640153 C88.2754393,21.6518557 89.9263624,24.0938803 92.2720341,25.4346698 C93.4305452,26.0997014 94.6230776,26.41434 95.736824,26.528754 C96.9920269,26.6556821 98.1344228,26.5251786 99.0118114,26.3481944 C98.9795808,26.528754 98.9491408,26.7093137 98.9294443,26.8934488 C98.9079572,27.0918856 98.9025855,27.2885348 98.8972137,27.4869716 C97.958945,28.0626172 95.3214073,29.4391611 92.4081189,28.8206102 C90.0427507,28.3128979 87.988945,26.5805979 86.3040007,23.6773417 C86.4006925,21.8073873 86.7462762,19.9535224 87.3282176,18.1640153 M90.843144,37.9201016 C89.9156189,36.7437823 89.1313409,35.4995296 88.4885194,34.2070085 C90.0499131,34.9650015 91.5414738,35.4226577 92.9560391,35.567463 C94.0876914,35.6836647 95.1692072,35.6014296 96.1970054,35.3225454 C98.3081099,34.7468998 99.6958164,33.4597419 100.499791,32.4764962 C100.55888,32.5533682 100.609017,32.6338155 100.669897,32.7088998 C100.868652,32.9502419 101.085314,33.1683436 101.310928,33.3739313 C100.73973,34.9131577 98.42987,39.2161981 90.843144,37.9201016 M103.873261,34.7719279 C103.905491,36.3486963 103.334293,40.6124069 96.6160032,42.5073894 C95.2247155,41.8655981 93.9193761,41.0146437 92.742959,39.9581016 C98.7808254,40.2387735 101.799759,37.0083647 102.884856,34.4179594 C103.20179,34.5627647 103.533049,34.6807542 103.873261,34.7719279 M116.133424,2.10314491 C111.302415,4.55589583 108.442844,7.59144324 107.637079,11.1525801 C106.885032,14.4705872 108.09726,17.4382013 109.19131,19.2867031 C108.603997,19.2366469 108.022056,19.2330715 107.447277,19.2813399 C104.858085,17.0359644 103.572442,14.5742749 103.62795,11.9606293 C103.735385,6.99970814 108.562814,2.78247826 109.581659,1.94761333 C111.418803,1.78135544 113.284597,1.78850631 115.161134,1.97979228 C115.488812,2.01375895 115.811118,2.06023965 116.133424,2.10314491 M111.819895,19.8659241 C111.193189,19.1061434 108.514468,15.5646714 109.422296,11.554817 C110.215527,8.05267483 113.519164,5.07254671 119.229353,2.69130457 C122.307375,3.45644844 125.211711,4.72215372 127.845667,6.4312134 C121.947467,6.50450989 117.673331,8.08842921 115.125323,11.1704573 C112.597011,14.2256697 112.428695,17.9530644 112.620288,20.1930768 C112.358862,20.0715118 112.090274,19.9642487 111.819895,19.8659241 M136.85054,15.6040013 C130.427697,13.2853293 125.30124,13.2799661 121.603674,15.6040013 C118.359126,17.6420013 117.009022,20.9671592 116.45573,23.2411382 C116.400222,23.1714172 116.346504,23.0981207 116.289205,23.0283996 C115.796793,22.4241505 115.23992,21.8914101 114.640073,21.4230277 C114.407296,20.2556469 113.739407,15.7166276 116.538097,12.3342626 C119.066409,9.27547484 123.747009,7.92753447 130.442022,8.32083272 C131.912095,9.52575555 133.269362,10.8879977 134.499496,12.3932573 C135.344654,13.4319223 136.127142,14.5027661 136.85054,15.6040013 M122.579545,17.1539539 C126.166095,14.8978521 131.487726,15.2446697 138.399399,18.1729539 C140.172083,21.3801224 141.464888,24.8000295 142.250957,28.3486523 C137.924893,23.9973435 133.552275,21.9486171 129.217259,22.2632557 C124.259117,22.6297382 120.683311,25.9870751 118.880188,28.1359137 C118.647411,27.2438418 118.326896,26.3785856 117.91327,25.5508716 C118.015333,24.4657259 118.677851,19.6031294 122.579545,17.1539539 M119.268746,32.3674454 C119.308139,31.7882243 119.309929,31.210791 119.274117,30.6405085 C120.056605,29.4963681 123.775658,24.4979049 129.351553,24.0885172 C133.733124,23.7667277 138.268686,26.3285295 142.84006,31.6952629 C143.219665,34.6253349 143.269802,37.6197647 142.963611,40.6338595 C142.732625,42.8845981 142.299302,45.0799175 141.699455,47.2126666 C140.755815,40.5230209 138.24899,35.8606489 134.20584,33.3399647 C128.749915,29.9379348 122.153385,31.4378313 119.268746,32.3674454 M135.919434,11.2383907 C134.544261,9.55257134 133.011517,8.04194851 131.355222,6.71009761 C131.34806,6.70294674 131.339107,6.69758358 131.330154,6.6904327 C127.829552,3.88013792 123.759543,1.88861859 119.358275,0.846378228 C119.34395,0.84101507 119.329626,0.837439632 119.317092,0.835651912 C118.018914,0.529951908 116.69746,0.297548396 115.349146,0.161681727 C109.587031,-0.42826565 103.910863,0.606823839 98.8381243,3.09354142 C98.8148466,3.10248002 98.7933595,3.11499405 98.7700819,3.12750809 C96.721648,4.13756951 94.7716965,5.376459 92.9596203,6.84953972 C90.320292,8.99480291 88.2861828,11.6066608 86.8644551,14.4670118 C86.8196904,14.5331574 86.7838786,14.6082416 86.7570197,14.6869012 C85.3836379,17.5257995 84.6154752,20.6024645 84.4722281,23.7166715 C84.4525316,23.8149961 84.4489504,23.9151084 84.4632751,24.0170084 C84.3701645,26.82194 84.7784188,29.6483243 85.7202687,32.3477804 C85.7310122,32.3871103 85.7435463,32.4264401 85.7596616,32.4604068 C86.620935,34.8952805 87.9047873,37.2264665 89.6291246,39.3413384 C91.4340384,41.5527472 93.6740654,43.2081753 96.1235912,44.2897455 C96.159403,44.3076227 96.189843,44.3237122 96.229236,44.3362262 C101.054874,46.4314333 106.689857,46.3009298 111.474311,43.7730947 C111.479683,43.7713069 111.483264,43.7677315 111.485055,43.7659438 C112.487785,43.2367789 113.449331,42.6057139 114.35895,41.8655981 C115.333031,41.0736385 116.176398,40.1654771 116.876519,39.166142 C118.747684,39.1625665 126.089099,39.49687 129.969306,44.7277368 C133.342776,49.2810579 133.314126,56.3657896 129.883358,65.7799195 C129.573586,66.0498652 129.265605,66.3215985 128.945089,66.5808178 C108.747244,83.0063829 79.3421903,81.8515163 60.5499579,63.9028142 C60.1828872,63.554209 59.6045269,63.566723 59.255362,63.9349932 C58.9044066,64.2979002 58.9169407,64.8753336 59.2822209,65.2257265 C68.1474274,73.6905775 79.2884727,78.547811 90.7715205,79.7205548 C104.499967,81.1221268 118.717244,77.2570776 130.1036,67.9984792 C138.474604,61.1926317 143.687009,51.5407351 144.786431,40.82157 C145.882271,30.1006173 142.736206,19.5941908 135.919434,11.2383907" id="Fill-16" fill="#F7941E"></path></g></g></g></g></svg> 